<?xml version="1.0" encoding="utf-8"?>
<!-- Generator: Adobe Illustrator 25.2.0, SVG Export Plug-In . SVG Version: 6.00 Build 0)  -->
<svg version="1.1" id="Layer_1" xmlns="http://www.w3.org/2000/svg" xmlns:xlink="http://www.w3.org/1999/xlink" x="0px" y="0px"
	 viewBox="0 0 198 138" style="enable-background:new 0 0 198 138;" xml:space="preserve">
<style type="text/css">
	.st0{fill:#3F78E0;}
	.st1{fill:#FFFFFF;}
</style>
<g>
	<path class="st0" d="M159.2,135.5H38.8c-8.7,0-15.7-7-15.7-15.7V18.2c0-8.7,7-15.7,15.7-15.7h120.5c8.7,0,15.7,7,15.7,15.7v101.7
		C174.9,128.5,167.9,135.5,159.2,135.5z"/>
	<g>
		<path class="st1" d="M129.1,88.3c0,14.6-9.4,23.2-31.9,23.2c-0.2,0-0.5,0-0.9,0l-27.5-0.2V91.8c0-3.4,0.1-7.4,0.1-12.1V58.3
			c0-4.7,0-8.7-0.1-12.1V26.7l24.2-0.2c0.4,0,0.8,0,1,0c20.6,0,32.2,4.9,32.2,20c0,12.3-10.4,18.5-25,20.3
			C117,68.1,129.1,74.9,129.1,88.3z M92.2,28H78.5v10.9c0,4.4,0.1,10.7,0.1,19.4v8.2h14c15.2,0,23.3-5.4,23.3-20.1
			C115.9,31.7,107.9,28,92.2,28z M118.7,88.3c0-13.6-6.9-20.5-24.5-20.5H78.6v42.6h16.8C111.7,110.4,118.7,103.2,118.7,88.3z"/>
	</g>
</g>
</svg>
